<svg width="23" height="23" viewBox="0 0 23 23" fill="none" xmlns="http://www.w3.org/2000/svg">
<path d="M11.5 1.91663C6.21571 1.91663 1.91663 6.21571 1.91663 11.5C1.91663 16.7842 6.21571 21.0833 11.5 21.0833C16.7842 21.0833 21.0833 16.7842 21.0833 11.5C21.0833 6.21571 16.7842 1.91663 11.5 1.91663ZM15.6021 9.85211L10.8104 14.6438C10.67 14.7842 10.486 14.8541 10.302 14.8541C10.118 14.8541 9.93404 14.7842 9.79365 14.6438L7.39781 12.2479C7.11702 11.9671 7.11702 11.5124 7.39781 11.2316C7.67861 10.9508 8.13333 10.9508 8.41413 11.2316L10.3016 13.1191L14.5848 8.83579C14.8656 8.555 15.3204 8.555 15.6011 8.83579C15.8819 9.11658 15.8824 9.57131 15.6021 9.85211Z" fill="#EF1B1A"/>
</svg>
