<svg width="40" height="40" viewBox="0 0 40 40" fill="none" xmlns="http://www.w3.org/2000/svg">
<path d="M20 -1.74846e-06C8.972 -2.71255e-06 2.71255e-06 8.972 1.74846e-06 20C7.84357e-07 31.028 8.972 40 20 40C31.028 40 40 31.028 40 20C40 8.972 31.028 -7.84357e-07 20 -1.74846e-06ZM28.561 21.061L22.561 27.061C21.975 27.647 21.026 27.647 20.44 27.061C19.854 26.475 19.854 25.526 20.44 24.94L23.879 21.5L12.5 21.5C11.672 21.5 11 20.828 11 20C11 19.172 11.672 18.5 12.5 18.5L23.879 18.5L20.44 15.061C19.854 14.475 19.854 13.526 20.44 12.94C20.732 12.646 21.116 12.5 21.5 12.5C21.884 12.5 22.268 12.646 22.561 12.939L28.561 18.939C29.146 19.525 29.146 20.475 28.561 21.061Z" fill="#EF1B1A"/>
</svg>
