<svg width="40" height="40" viewBox="0 0 40 40" fill="none" xmlns="http://www.w3.org/2000/svg">
<path d="M20 40C31.028 40 40 31.028 40 20C40 8.972 31.028 0 20 0C8.972 0 0 8.972 0 20C0 31.028 8.972 40 20 40ZM11.439 18.939L17.439 12.939C18.025 12.353 18.974 12.353 19.56 12.939C20.146 13.525 20.146 14.474 19.56 15.06L16.121 18.5H27.5C28.328 18.5 29 19.172 29 20C29 20.828 28.328 21.5 27.5 21.5H16.121L19.56 24.939C20.146 25.525 20.146 26.474 19.56 27.06C19.268 27.354 18.884 27.5 18.5 27.5C18.116 27.5 17.732 27.354 17.439 27.061L11.439 21.061C10.854 20.475 10.854 19.525 11.439 18.939Z" fill="#EF1B1A"/>
</svg>
